<svg xmlns="http://www.w3.org/2000/svg" xmlns:xlink="http://www.w3.org/1999/xlink" version="1.1" x="0px" y="0px" viewBox="0 0 100 100" enable-background="new 0 0 100 100" xml:space="preserve"><g><g><path d="M50.444,54.223c-2.017,0-3.653,1.637-3.653,3.653c0,2.01,1.637,3.646,3.653,3.646s3.652-1.637,3.652-3.646    C54.097,55.859,52.461,54.223,50.444,54.223z"></path><path d="M87.613,46.653c0.236-0.447,0.383-0.951,0.383-1.492v-8.184c0-1.782-1.433-3.217-3.215-3.217h-2.629v-4.379    c0-3.233-2.615-5.845-5.846-5.845h-9.384L30.762,7.667c-1.622-0.612-3.406,0.193-3.963,1.799    c-0.565,1.604,0.295,3.418,1.915,4.032l22.883,10.039H23.706c-3.232,0-5.848,2.612-5.848,5.845v16.404    C8.009,45.786,0,53.797,0,63.644c0,1.449,1.179,2.628,2.631,2.628c1.452,0,2.629-1.179,2.629-2.628    c0-6.948,5.65-12.595,12.597-12.595v17.78c0,3.23,2.616,5.845,5.848,5.845h15.045v12.601h-1.315c-1.452,0-2.629,1.179-2.629,2.63    c0,1.454,1.177,2.634,2.629,2.634h7.89c1.453,0,2.631-1.18,2.631-2.634c0-1.451-1.179-2.63-2.631-2.63h-1.314V74.674h11.986    v12.601h-1.314c-1.452,0-2.631,1.179-2.631,2.63c0,1.454,1.179,2.634,2.631,2.634h7.891c1.452,0,2.629-1.18,2.629-2.634    c0-1.451-1.177-2.63-2.629-2.63H61.26V74.674h15.047c3.23,0,5.846-2.614,5.846-5.845v-17.78c6.941,0,12.587,5.652,12.587,12.595    c0,1.449,1.177,2.628,2.629,2.628S100,65.093,100,63.644C100,55.704,94.791,48.97,87.613,46.653z M50.444,67.374    c-5.246,0-9.498-4.256-9.498-9.498c0-5.247,4.252-9.498,9.498-9.498c5.245,0,9.498,4.251,9.498,9.498    C59.942,63.118,55.689,67.374,50.444,67.374z M74.844,39.316c0,1.782-1.432,3.211-3.213,3.211H42.7l-4.385-4.381l-4.383,4.381    h-5.552c-1.782,0-3.216-1.43-3.216-3.211v-5.258c0-1.789,1.434-3.217,3.216-3.217h43.251c1.781,0,3.213,1.428,3.213,3.217V39.316z    "></path></g></g></svg>